<svg id="Layer_1" data-name="Layer 1" xmlns="http://www.w3.org/2000/svg" viewBox="0 0 114.51 110"><defs><style>.cls-1{fill:#3a4145;}</style></defs><title>home</title><path class="cls-1" d="M110.31,71a2.3,2.3,0,0,0,0-.33c0-31.79-5.79-68.3-51-68.3-18,0-29.7,5.78-37.33,14.72C10.44,30.61,8.32,51.47,8.32,70.63a2.3,2.3,0,0,0,0,.33,21.83,21.83,0,0,0-3.07,3.3A14.57,14.57,0,0,0,2.1,83.88l.59,10.56C3,100.8,8,106.19,15.43,109.36a35.36,35.36,0,0,0,4.39,1.54c1,.28,2,.53,3.07.74-1-.19-1.9-.46-2.84-.71L17.64,65.5c.45-.18.91-.35,1.38-.52.7-.25,1.4-.49,2.13-.7.27-.09.48-.13.72-.19l2.53,47.82c-.48-.08-1-.15-1.52-.26a31.65,31.65,0,0,0,5.37.66l1.45,0c2,0,3.35-3.81,3.08-8.53L31,71.23c-.26-4.72-1.92-8.42-3.7-8.2-.91.11-1.74.21-2.73.4.49-12.09,2.51-23.24,8.61-30.95,5.21-6.58,13.39-10.66,26.17-10.66,27.77,0,33.88,19.19,34.8,41.61-1-.19-1.82-.29-2.73-.4-.62-.08-1.23.34-1.77,1.1a10.2,10.2,0,0,0-1.38,3.35,20.38,20.38,0,0,0-.54,3.75l-1.82,32.56c-.26,4.73,1.13,8.57,3.09,8.53l1.2,0a29.23,29.23,0,0,0,4.33-.43l1.29-.23c-.57.11-1,.19-1.52.26l2.53-47.82c.24.07.45.11.72.19.73.21,1.43.45,2.13.7.46.17.92.34,1.38.52l-2.4,45.43c-.94.25-1.86.52-2.84.71a32.51,32.51,0,0,0,13.2-5.55c4.14-3.1,6.74-7.12,7-11.65l.59-10.56C116.84,79.11,114.47,74.6,110.31,71Z" transform="translate(-2.07 -2.33)"/></svg>