<svg id="OBJECTS" xmlns="http://www.w3.org/2000/svg" viewBox="0 0 186.05 147.81"><defs><style>.cls-1{font-size:30.71px;font-family:Bebas, Bebas;}.cls-2,.cls-3{fill:#FF535B;}.cls-2{letter-spacing:0em;}</style></defs><title>logo-music-list</title><text class="cls-1" transform="translate(0 140.13)">sound <tspan class="cls-2" x="86.82" y="0">STUDIO</tspan></text><rect x="9.72" y="91" width="176" height="10"/><rect class="cls-3" x="9.72" y="75" width="25" height="10"/><rect class="cls-3" x="39.72" y="75" width="25" height="10"/><rect class="cls-3" x="69.72" y="75" width="25" height="10"/><rect class="cls-3" x="100.72" y="75" width="24" height="10"/><rect class="cls-3" x="130.72" y="75" width="24" height="10"/><rect class="cls-3" x="160.72" y="75" width="25" height="10"/><rect class="cls-3" x="9.72" y="60" width="25" height="10"/><rect class="cls-3" x="39.72" y="60" width="25" height="10"/><rect class="cls-3" x="69.72" y="60" width="25" height="10"/><rect class="cls-3" x="100.72" y="60" width="24" height="10"/><rect class="cls-3" x="130.72" y="60" width="24" height="10"/><rect class="cls-3" x="160.72" y="60" width="25" height="10"/><rect class="cls-3" x="9.72" y="45" width="25" height="9"/><rect x="9.72" y="15" width="25" height="9"/><rect class="cls-3" x="9.72" y="30" width="25" height="9"/><rect class="cls-3" x="39.72" y="45" width="25" height="9"/><rect class="cls-3" x="69.72" y="45" width="25" height="9"/><rect class="cls-3" x="100.72" y="45" width="24" height="9"/><rect class="cls-3" x="130.72" y="45" width="24" height="9"/><rect class="cls-3" x="160.72" y="45" width="25" height="9"/><rect x="39.72" y="30" width="25" height="9"/><rect class="cls-3" x="69.72" y="30" width="25" height="9"/><rect class="cls-3" x="100.72" y="30" width="24" height="9"/><rect x="130.72" y="30" width="24" height="9"/><rect class="cls-3" x="160.72" y="30" width="25" height="9"/><rect class="cls-3" x="69.72" y="15" width="25" height="9"/><rect x="100.72" y="15" width="24" height="9"/><rect x="160.72" y="15" width="25" height="9"/><rect x="69.72" width="25" height="9"/></svg>