<svg id="Objects" xmlns="http://www.w3.org/2000/svg" viewBox="0 0 397.48 274.49"><defs><style>.cls-1,.cls-12,.cls-13,.cls-9{fill:none;}.cls-2{fill:#2e2845;}.cls-3{fill:#a95294;}.cls-4{fill:#5a979b;}.cls-5{fill:#71b5b3;}.cls-6{fill:#d37455;}.cls-7{fill:#89b480;}.cls-8{fill:#f3e85c;}.cls-9{stroke:#d37455;}.cls-12,.cls-13,.cls-9{stroke-miterlimit:10;}.cls-10{fill:#6eb5e7;}.cls-11{fill:#f9efce;}.cls-12{stroke:#a95294;stroke-width:1.2px;}.cls-13{stroke:#f3e85c;stroke-width:1.4px;}</style></defs><title>Mesa de trabajo 1</title><rect id="_Path_" data-name="&lt;Path&gt;" class="cls-1" x="-390.6" y="-29.83" width="800" height="800"/><g id="_Group_" data-name="&lt;Group&gt;"><g id="_Group_2" data-name="&lt;Group&gt;"><rect id="_Rectangle_" data-name="&lt;Rectangle&gt;" class="cls-2" x="371.89" y="103.03" width="13.14" height="37.6"/><g id="_Group_3" data-name="&lt;Group&gt;"><polyline id="_Path_2" data-name="&lt;Path&gt;" class="cls-3" points="371.89 107.59 385.03 107.59 385.03 106.61 371.89 106.61"/><polyline id="_Path_3" data-name="&lt;Path&gt;" class="cls-3" points="371.89 113.44 385.03 113.44 385.03 112.47 371.89 112.47"/><polyline id="_Path_4" data-name="&lt;Path&gt;" class="cls-3" points="371.89 119.3 385.03 119.3 385.03 118.33 371.89 118.33"/><polyline id="_Path_5" data-name="&lt;Path&gt;" class="cls-3" points="371.89 125.16 385.03 125.16 385.03 124.19 371.89 124.19"/><polyline id="_Path_6" data-name="&lt;Path&gt;" class="cls-3" points="371.89 131.02 385.03 131.02 385.03 130.05 371.89 130.05"/><polyline id="_Path_7" data-name="&lt;Path&gt;" class="cls-3" points="371.89 136.88 385.03 136.88 385.03 135.91 371.89 135.91"/></g></g><g id="_Group_4" data-name="&lt;Group&gt;"><rect id="_Rectangle_2" data-name="&lt;Rectangle&gt;" class="cls-4" x="16.58" y="97.98" width="358.59" height="158.78"/><rect id="_Rectangle_3" data-name="&lt;Rectangle&gt;" class="cls-5" x="130.76" y="99.45" width="127" height="157.32"/><g id="_Group_5" data-name="&lt;Group&gt;"><g id="_Group_6" data-name="&lt;Group&gt;"><rect id="_Path_8" data-name="&lt;Path&gt;" class="cls-3" x="74.97" y="42.97" width="14.19" height="11.39"/><rect id="_Path_9" data-name="&lt;Path&gt;" class="cls-3" x="97.75" y="42.97" width="14.19" height="11.39"/><rect id="_Path_10" data-name="&lt;Path&gt;" class="cls-3" x="120.54" y="42.97" width="14.19" height="11.39"/><rect id="_Path_11" data-name="&lt;Path&gt;" class="cls-3" x="143.32" y="42.97" width="14.19" height="11.39"/><rect id="_Path_12" data-name="&lt;Path&gt;" class="cls-6" x="287.27" y="42.97" width="5.37" height="11.39"/><rect id="_Path_13" data-name="&lt;Path&gt;" class="cls-3" x="257.76" y="47.21" width="15.63" height="7.16"/><rect id="_Path_14" data-name="&lt;Path&gt;" class="cls-2" x="298.61" y="42.97" width="5.37" height="11.39"/><rect id="_Path_15" data-name="&lt;Path&gt;" class="cls-7" x="309.94" y="42.97" width="5.37" height="11.39"/><g id="_Group_7" data-name="&lt;Group&gt;"><g id="_Group_8" data-name="&lt;Group&gt;"><polygon id="_Path_16" data-name="&lt;Path&gt;" class="cls-2" points="50.32 57.72 63.46 21.95 74.97 21.95 74.97 15.47 59.36 15.47 44.72 55.34 50.32 57.72 50.32 57.72"/></g><g id="_Group_9" data-name="&lt;Group&gt;"><polygon id="_Path_17" data-name="&lt;Path&gt;" class="cls-2" points="341.43 57.72 328.3 21.95 316.79 21.95 316.79 15.47 332.39 15.47 347.03 55.34 341.43 57.72 341.43 57.72"/></g><rect id="_Rectangle_4" data-name="&lt;Rectangle&gt;" class="cls-4" x="74.97" y="10.42" width="242.69" height="15.85" rx="4.08" ry="4.08"/></g></g><rect id="_Rectangle_5" data-name="&lt;Rectangle&gt;" class="cls-8" x="16.58" y="51.26" width="358.59" height="48.19"/><path id="_Path_18" data-name="&lt;Path&gt;" class="cls-2" d="M273,63.48H97.81A4.4,4.4,0,0,0,93.56,68V86.94a4.4,4.4,0,0,0,4.25,4.54H273a4.4,4.4,0,0,0,4.25-4.54V68A4.4,4.4,0,0,0,273,63.48Z"/><line id="_Path_19" data-name="&lt;Path&gt;" class="cls-9" x1="100.8" y1="77.42" x2="269.98" y2="77.42"/><g id="_Group_10" data-name="&lt;Group&gt;"><g id="_Group_11" data-name="&lt;Group&gt;"><line id="_Path_20" data-name="&lt;Path&gt;" class="cls-9" x1="103.62" y1="74.45" x2="103.62" y2="80.39"/><line id="_Path_21" data-name="&lt;Path&gt;" class="cls-9" x1="109.4" y1="74.51" x2="109.4" y2="80.45"/><line id="_Path_22" data-name="&lt;Path&gt;" class="cls-9" x1="115.17" y1="74.57" x2="115.17" y2="80.51"/><line id="_Path_23" data-name="&lt;Path&gt;" class="cls-9" x1="120.95" y1="74.63" x2="120.95" y2="80.57"/><line id="_Path_24" data-name="&lt;Path&gt;" class="cls-9" x1="126.73" y1="69.58" x2="126.73" y2="84.88"/></g><g id="_Group_12" data-name="&lt;Group&gt;"><line id="_Path_25" data-name="&lt;Path&gt;" class="cls-9" x1="132.67" y1="74.45" x2="132.67" y2="80.39"/><line id="_Path_26" data-name="&lt;Path&gt;" class="cls-9" x1="138.45" y1="74.51" x2="138.45" y2="80.45"/><line id="_Path_27" data-name="&lt;Path&gt;" class="cls-9" x1="144.23" y1="74.57" x2="144.23" y2="80.51"/><line id="_Path_28" data-name="&lt;Path&gt;" class="cls-9" x1="150" y1="74.63" x2="150" y2="80.57"/><line id="_Path_29" data-name="&lt;Path&gt;" class="cls-9" x1="155.78" y1="69.58" x2="155.78" y2="84.88"/></g><g id="_Group_13" data-name="&lt;Group&gt;"><line id="_Path_30" data-name="&lt;Path&gt;" class="cls-9" x1="161.72" y1="74.45" x2="161.72" y2="80.39"/><line id="_Path_31" data-name="&lt;Path&gt;" class="cls-9" x1="167.5" y1="74.51" x2="167.5" y2="80.45"/><line id="_Path_32" data-name="&lt;Path&gt;" class="cls-9" x1="173.28" y1="74.57" x2="173.28" y2="80.51"/><line id="_Path_33" data-name="&lt;Path&gt;" class="cls-9" x1="179.05" y1="74.63" x2="179.05" y2="80.57"/><line id="_Path_34" data-name="&lt;Path&gt;" class="cls-9" x1="184.83" y1="69.58" x2="184.83" y2="84.88"/></g><g id="_Group_14" data-name="&lt;Group&gt;"><line id="_Path_35" data-name="&lt;Path&gt;" class="cls-9" x1="190.77" y1="74.45" x2="190.77" y2="80.39"/><line id="_Path_36" data-name="&lt;Path&gt;" class="cls-9" x1="196.55" y1="74.51" x2="196.55" y2="80.45"/><line id="_Path_37" data-name="&lt;Path&gt;" class="cls-9" x1="202.33" y1="74.57" x2="202.33" y2="80.51"/><line id="_Path_38" data-name="&lt;Path&gt;" class="cls-9" x1="208.11" y1="74.63" x2="208.11" y2="80.57"/><line id="_Path_39" data-name="&lt;Path&gt;" class="cls-9" x1="213.88" y1="69.58" x2="213.88" y2="84.88"/></g><g id="_Group_15" data-name="&lt;Group&gt;"><line id="_Path_40" data-name="&lt;Path&gt;" class="cls-9" x1="219.82" y1="74.45" x2="219.82" y2="80.39"/><line id="_Path_41" data-name="&lt;Path&gt;" class="cls-9" x1="225.6" y1="74.51" x2="225.6" y2="80.45"/><line id="_Path_42" data-name="&lt;Path&gt;" class="cls-9" x1="231.38" y1="74.57" x2="231.38" y2="80.51"/><line id="_Path_43" data-name="&lt;Path&gt;" class="cls-9" x1="237.16" y1="74.63" x2="237.16" y2="80.57"/><line id="_Path_44" data-name="&lt;Path&gt;" class="cls-9" x1="242.93" y1="69.58" x2="242.93" y2="84.88"/></g><g id="_Group_16" data-name="&lt;Group&gt;"><line id="_Path_45" data-name="&lt;Path&gt;" class="cls-9" x1="248.88" y1="74.45" x2="248.88" y2="80.39"/><line id="_Path_46" data-name="&lt;Path&gt;" class="cls-9" x1="254.65" y1="74.51" x2="254.65" y2="80.45"/><line id="_Path_47" data-name="&lt;Path&gt;" class="cls-9" x1="260.43" y1="74.57" x2="260.43" y2="80.51"/><line id="_Path_48" data-name="&lt;Path&gt;" class="cls-9" x1="266.21" y1="74.63" x2="266.21" y2="80.57"/></g></g><g id="_Group_17" data-name="&lt;Group&gt;"><circle id="_Path_49" data-name="&lt;Path&gt;" class="cls-3" cx="294.88" cy="77.6" r="7.93"/><circle id="_Path_50" data-name="&lt;Path&gt;" class="cls-10" cx="294.88" cy="77.6" r="4.93"/></g><g id="_Group_18" data-name="&lt;Group&gt;"><circle id="_Path_51" data-name="&lt;Path&gt;" class="cls-3" cx="320.56" cy="77.6" r="7.93"/><circle id="_Path_52" data-name="&lt;Path&gt;" class="cls-10" cx="320.56" cy="77.6" r="4.93"/></g></g><g id="_Group_19" data-name="&lt;Group&gt;"><rect id="_Path_53" data-name="&lt;Path&gt;" class="cls-3" x="134.07" y="139.54" width="119.51" height="81.2"/><rect id="_Rectangle_6" data-name="&lt;Rectangle&gt;" class="cls-11" x="139.28" y="147.08" width="109.09" height="45.59"/><rect id="_Rectangle_7" data-name="&lt;Rectangle&gt;" class="cls-8" x="159.36" y="160.92" width="68.92" height="19.22" rx="8.93" ry="8.93"/><g id="_Group_20" data-name="&lt;Group&gt;"><rect id="_Rectangle_8" data-name="&lt;Rectangle&gt;" class="cls-2" x="178.47" y="163.24" width="30.69" height="14.12"/><path id="_Path_54" data-name="&lt;Path&gt;" class="cls-4" d="M204.77,177.36h4.4V163.24h-4.11a21.71,21.71,0,0,0-.29,14.12Z"/><path id="_Path_55" data-name="&lt;Path&gt;" class="cls-4" d="M178.47,177.36h12.3a21.71,21.71,0,0,0-.29-14.12h-12Z"/></g><g id="_Group_21" data-name="&lt;Group&gt;"><g id="_Group_22" data-name="&lt;Group&gt;"><path id="_Path_56" data-name="&lt;Path&gt;" class="cls-2" d="M225.87,170.3h-.63a6.43,6.43,0,1,1-1.88-4.54,6.4,6.4,0,0,1,1.88,4.54h1.27a7.69,7.69,0,1,0-7.69,7.69,7.69,7.69,0,0,0,7.69-7.69Z"/><path id="_Path_57" data-name="&lt;Path&gt;" class="cls-2" d="M220.95,163.47a7.16,7.16,0,0,0-4.28-.1v2.09h4.28Z"/><path id="_Path_58" data-name="&lt;Path&gt;" class="cls-2" d="M213.69,165.05a8.59,8.59,0,0,0-2,3.63l1.82,1,2.14-3.7-1.91-1.1Z"/><path id="_Path_59" data-name="&lt;Path&gt;" class="cls-2" d="M213.76,175.68l1.92-1.11-2.14-3.7-2.06,1.19a5,5,0,0,0,.42,1.45l.44.76A5.82,5.82,0,0,0,213.76,175.68Z"/><path id="_Path_60" data-name="&lt;Path&gt;" class="cls-2" d="M220.95,177.35v-2.21h-4.28V177c.33.09.66.18,1,.25A7.88,7.88,0,0,0,220.95,177.35Z"/><path id="_Path_61" data-name="&lt;Path&gt;" class="cls-2" d="M225.76,171.84l-1.69-1-2.14,3.7,1.85,1.07a9,9,0,0,0,1.35-2.17A13,13,0,0,0,225.76,171.84Z"/><path id="_Path_62" data-name="&lt;Path&gt;" class="cls-2" d="M224.57,165.93a10.53,10.53,0,0,0-.92-.89l-1.71,1,2.14,3.7,2-1.15a5.64,5.64,0,0,0-.15-.69C225.46,167.24,225,166.61,224.57,165.93Z"/></g><g id="_Group_23" data-name="&lt;Group&gt;"><path id="_Path_63" data-name="&lt;Path&gt;" class="cls-2" d="M175.9,170.3h-.63a6.43,6.43,0,1,1-1.88-4.54,6.4,6.4,0,0,1,1.88,4.54h1.27a7.69,7.69,0,1,0-7.69,7.69,7.69,7.69,0,0,0,7.69-7.69Z"/><path id="_Path_64" data-name="&lt;Path&gt;" class="cls-2" d="M171,163.47a7.16,7.16,0,0,0-4.28-.1v2.09H171Z"/><path id="_Path_65" data-name="&lt;Path&gt;" class="cls-2" d="M163.72,165.05a8.59,8.59,0,0,0-2,3.63l1.82,1,2.14-3.7-1.91-1.1Z"/><path id="_Path_66" data-name="&lt;Path&gt;" class="cls-2" d="M163.79,175.68l1.92-1.11-2.14-3.7-2.06,1.19a5,5,0,0,0,.42,1.45l.44.76A5.82,5.82,0,0,0,163.79,175.68Z"/><path id="_Path_67" data-name="&lt;Path&gt;" class="cls-2" d="M171,177.35v-2.21H166.7V177c.33.09.66.18,1,.25A7.88,7.88,0,0,0,171,177.35Z"/><path id="_Path_68" data-name="&lt;Path&gt;" class="cls-2" d="M175.79,171.84l-1.69-1-2.14,3.7,1.85,1.07a9,9,0,0,0,1.35-2.17A13,13,0,0,0,175.79,171.84Z"/><path id="_Path_69" data-name="&lt;Path&gt;" class="cls-2" d="M174.6,165.93a10.54,10.54,0,0,0-.92-.89L172,166l2.14,3.7,2-1.15a5.63,5.63,0,0,0-.15-.69C175.49,167.24,175,166.61,174.6,165.93Z"/></g></g><g id="_Group_24" data-name="&lt;Group&gt;"><g id="_Group_25" data-name="&lt;Group&gt;"><rect id="_Rectangle_9" data-name="&lt;Rectangle&gt;" class="cls-2" x="154.73" y="198.18" width="12.05" height="12.53"/><g id="_Group_26" data-name="&lt;Group&gt;"><polyline id="_Path_70" data-name="&lt;Path&gt;" class="cls-8" points="156.72 209.33 164.78 209.33 164.78 208.35 156.72 208.35"/></g></g><g id="_Group_27" data-name="&lt;Group&gt;"><rect id="_Rectangle_10" data-name="&lt;Rectangle&gt;" class="cls-2" x="171.26" y="198.18" width="12.05" height="12.53"/><g id="_Group_28" data-name="&lt;Group&gt;"><polyline id="_Path_71" data-name="&lt;Path&gt;" class="cls-8" points="173.26 209.33 181.31 209.33 181.31 208.35 173.26 208.35"/></g></g><g id="_Group_29" data-name="&lt;Group&gt;"><rect id="_Rectangle_11" data-name="&lt;Rectangle&gt;" class="cls-2" x="187.8" y="198.18" width="12.05" height="12.53"/><g id="_Group_30" data-name="&lt;Group&gt;"><polyline id="_Path_72" data-name="&lt;Path&gt;" class="cls-8" points="189.79 209.33 197.85 209.33 197.85 208.35 189.79 208.35"/></g></g><g id="_Group_31" data-name="&lt;Group&gt;"><rect id="_Rectangle_12" data-name="&lt;Rectangle&gt;" class="cls-2" x="204.34" y="198.18" width="12.05" height="12.53"/><g id="_Group_32" data-name="&lt;Group&gt;"><polyline id="_Path_73" data-name="&lt;Path&gt;" class="cls-8" points="206.33 209.33 214.39 209.33 214.39 208.35 206.33 208.35"/></g></g><g id="_Group_33" data-name="&lt;Group&gt;"><rect id="_Rectangle_13" data-name="&lt;Rectangle&gt;" class="cls-2" x="220.87" y="198.18" width="12.05" height="12.53"/><g id="_Group_34" data-name="&lt;Group&gt;"><polyline id="_Path_74" data-name="&lt;Path&gt;" class="cls-8" points="222.87 209.33 230.92 209.33 230.92 208.35 222.87 208.35"/></g></g></g></g><rect id="_Rectangle_14" data-name="&lt;Rectangle&gt;" class="cls-8" x="134.07" y="110.11" width="119.51" height="19.77"/><g id="_Group_35" data-name="&lt;Group&gt;"><line id="_Path_75" data-name="&lt;Path&gt;" class="cls-12" x1="139.28" y1="113.77" x2="247.82" y2="113.77"/><line id="_Path_76" data-name="&lt;Path&gt;" class="cls-12" x1="139.28" y1="117.8" x2="247.82" y2="117.8"/><line id="_Path_77" data-name="&lt;Path&gt;" class="cls-12" x1="139.28" y1="121.83" x2="247.82" y2="121.83"/><line id="_Path_78" data-name="&lt;Path&gt;" class="cls-12" x1="139.28" y1="125.86" x2="247.82" y2="125.86"/></g><rect id="_Path_79" data-name="&lt;Path&gt;" class="cls-8" x="154.73" y="230.71" width="4.39" height="12.94"/><rect id="_Path_80" data-name="&lt;Path&gt;" class="cls-8" x="164.12" y="230.71" width="4.39" height="12.94"/><rect id="_Path_81" data-name="&lt;Path&gt;" class="cls-8" x="173.52" y="230.71" width="4.39" height="12.94"/><g id="_Group_36" data-name="&lt;Group&gt;"><circle id="_Path_82" data-name="&lt;Path&gt;" class="cls-6" cx="211.67" cy="237.18" r="5.65"/><circle id="_Path_83" data-name="&lt;Path&gt;" class="cls-8" cx="211.67" cy="237.18" r="3.52"/></g><g id="_Group_37" data-name="&lt;Group&gt;"><circle id="_Path_84" data-name="&lt;Path&gt;" class="cls-6" cx="230.07" cy="237.18" r="5.65"/><circle id="_Path_85" data-name="&lt;Path&gt;" class="cls-8" cx="230.07" cy="237.18" r="3.52"/></g></g><g id="_Group_38" data-name="&lt;Group&gt;"><g id="_Group_39" data-name="&lt;Group&gt;"><circle id="_Path_86" data-name="&lt;Path&gt;" class="cls-2" cx="72.82" cy="184.73" r="48.99"/><path id="_Path_87" data-name="&lt;Path&gt;" class="cls-6" d="M72.82,225.91A41.18,41.18,0,1,1,114,184.73,41.22,41.22,0,0,1,72.82,225.91Z"/><path id="_Path_88" data-name="&lt;Path&gt;" class="cls-8" d="M72.82,196.61A11.88,11.88,0,1,1,84.7,184.73,11.89,11.89,0,0,1,72.82,196.61Z"/><circle id="_Path_89" data-name="&lt;Path&gt;" class="cls-6" cx="37.18" cy="123.54" r="11.72"/></g><g id="_Group_40" data-name="&lt;Group&gt;"><circle id="_Path_90" data-name="&lt;Path&gt;" class="cls-2" cx="318.93" cy="184.73" r="48.99"/><path id="_Path_91" data-name="&lt;Path&gt;" class="cls-6" d="M318.93,225.91a41.18,41.18,0,1,0-41.18-41.18A41.22,41.22,0,0,0,318.93,225.91Z"/><path id="_Path_92" data-name="&lt;Path&gt;" class="cls-8" d="M318.93,196.61a11.88,11.88,0,1,0-11.88-11.88A11.89,11.89,0,0,0,318.93,196.61Z"/><circle id="_Path_93" data-name="&lt;Path&gt;" class="cls-6" cx="354.58" cy="123.54" r="11.72"/></g></g><g id="_Group_41" data-name="&lt;Group&gt;"><line id="_Path_94" data-name="&lt;Path&gt;" class="cls-13" x1="60.94" y1="239.72" x2="83.72" y2="239.72"/><line id="_Path_95" data-name="&lt;Path&gt;" class="cls-13" x1="60.94" y1="243.08" x2="83.72" y2="243.08"/><line id="_Path_96" data-name="&lt;Path&gt;" class="cls-13" x1="60.94" y1="246.44" x2="83.72" y2="246.44"/><line id="_Path_97" data-name="&lt;Path&gt;" class="cls-13" x1="60.94" y1="249.8" x2="83.72" y2="249.8"/></g><g id="_Group_42" data-name="&lt;Group&gt;"><line id="_Path_98" data-name="&lt;Path&gt;" class="cls-13" x1="307.54" y1="239.72" x2="330.32" y2="239.72"/><line id="_Path_99" data-name="&lt;Path&gt;" class="cls-13" x1="307.54" y1="243.08" x2="330.32" y2="243.08"/><line id="_Path_100" data-name="&lt;Path&gt;" class="cls-13" x1="307.54" y1="246.44" x2="330.32" y2="246.44"/><line id="_Path_101" data-name="&lt;Path&gt;" class="cls-13" x1="307.54" y1="249.8" x2="330.32" y2="249.8"/></g></g></svg>