<svg id="Layer_1" data-name="Layer 1" xmlns="http://www.w3.org/2000/svg" viewBox="0 0 134.64 97.11"><defs><style>.cls-1{fill:#3a4145;}</style></defs><title>settings</title><path class="cls-1" d="M45.47,36.31a21.07,21.07,0,1,0,20.9,21.07A21,21,0,0,0,45.47,36.31Zm0,36.17a15.1,15.1,0,1,1,15-15.1A15,15,0,0,1,45.47,72.48Z" transform="translate(-3.54 -2.53)"/><path class="cls-1" d="M81.13,46.5,84,40.15l-4.13-7.21-6.7-.64Q72.13,31.1,71,30l-.65-7-7.16-4.16L57,21.69c-1-.33-2.05-.63-3.1-.88l-4-5.69H41.68l-3.89,5.52c-1,.22-2.1.49-3.12.8l-6.3-2.9-7.15,4.16-.63,6.75c-.79.72-1.56,1.47-2.28,2.26l-6.92.65L7.26,39.56,10,45.71c-.33,1-.61,2.07-.87,3.13l-5.64,4v8.32L9,65.13c.22,1.06.48,2.11.8,3.14L6.92,74.62l4.13,7.2,6.7.64q1.07,1.19,2.23,2.3l.66,7,7.15,4.17,6.1-2.81c1,.33,2.05.63,3.1.87l4,5.68h8.27l3.88-5.51c1.06-.23,2.1-.49,3.12-.8l6.3,2.91,7.15-4.17.63-6.75q1.2-1.08,2.29-2.25l6.92-.66,4.12-7.21-2.79-6.14c.33-1,.62-2.07.87-3.12l5.65-4V53.56l-5.48-3.91Q81.6,48,81.13,46.5ZM45.47,84.29a26.91,26.91,0,1,1,26.7-26.91A26.8,26.8,0,0,1,45.47,84.29Z" transform="translate(-3.54 -2.53)"/><path class="cls-1" d="M109.52,17a14.4,14.4,0,1,0,14.3,14.4A14.34,14.34,0,0,0,109.52,17Zm0,24.73a10.32,10.32,0,1,1,10.24-10.32A10.29,10.29,0,0,1,109.52,41.75Z" transform="translate(-3.54 -2.53)"/><path class="cls-1" d="M138.19,34.5V28.81l-3.73-2.68c-.15-.72-.34-1.44-.55-2.15l2-4.34-2.82-4.93-4.58-.43c-.48-.55-1-1.07-1.52-1.57l-.45-4.76L121.61,5.1,117.44,7c-.69-.23-1.4-.43-2.12-.59l-2.75-3.9h-5.64L104.28,6.3c-.73.15-1.44.34-2.13.55l-4.31-2L93,7.71l-.43,4.61c-.54.49-1.06,1-1.57,1.55l-4.72.44-2.82,4.93,1.91,4.21c-.23.7-.43,1.42-.6,2.13l-3.86,2.77V34l3.74,2.68a21.73,21.73,0,0,0,.55,2.15l-2,4.34L86,48.13l4.58.44c.48.54,1,1.08,1.53,1.57l.45,4.76,4.89,2.85,4.17-1.92q1,.34,2.12.6l2.74,3.88h5.65l2.66-3.77a21.1,21.1,0,0,0,2.12-.55l4.31,2,4.89-2.85.43-4.61c.55-.49,1.07-1,1.57-1.55l4.72-.45,2.82-4.93-1.92-4.2c.24-.71.43-1.42.6-2.14ZM109.52,49.82a18.4,18.4,0,1,1,18.26-18.39A18.33,18.33,0,0,1,109.52,49.82Z" transform="translate(-3.54 -2.53)"/></svg>