<svg id="Layer_1" data-name="Layer 1" xmlns="http://www.w3.org/2000/svg" viewBox="0 0 141.73 141.73"><defs><style>.cls-1{fill:#3a4145;}</style></defs><title>Artboard 1</title><path class="cls-1" d="M39.34,94.17,27.43,133.53c-1.14,3.76.57,5,3.8,2.76L65,112.8a11.08,11.08,0,0,1,11.73,0l29.87,20.78,3.9,2.71c3.22,2.25,4.94,1,3.8-2.76L102.38,94.17a10.86,10.86,0,0,1,.81-7.59A9.77,9.77,0,0,1,106,83L134.8,61.18l4-3c3.14-2.37,2.48-4.39-1.45-4.46l-41.12-.85A11.06,11.06,0,0,1,86.73,46L73.21,7.09c-1.28-3.71-3.41-3.71-4.69,0l-1.69,4.84L55,46A11,11,0,0,1,49,52a9.43,9.43,0,0,1-3.51.84L4.4,53.7c-3.94.08-4.59,2.09-1.45,4.46L4.7,59.49,35.71,83A11.06,11.06,0,0,1,39.34,94.17Z"/></svg>