<svg id="Layer_1" data-name="Layer 1" xmlns="http://www.w3.org/2000/svg" xmlns:xlink="http://www.w3.org/1999/xlink" viewBox="0 0 85.04 85.04"><defs><style>.cls-1{fill:none;}.cls-2{fill:#f6a100;}.cls-3{fill:#ed9a00;}.cls-4{clip-path:url(#clip-path);}.cls-5{fill:#d9a78c;}.cls-6{fill:#c74043;}.cls-7{fill:#eac0a7;}.cls-8{fill:#f2d7bc;}.cls-9{fill:#fff;}.cls-10{fill:#553828;}.cls-11{fill:#0f958c;}</style><clipPath id="clip-path"><circle class="cls-1" cx="42.52" cy="42.52" r="42.52"/></clipPath></defs><title>user</title><g id="men_5" data-name="men 5"><circle class="cls-2" cx="42.52" cy="42.52" r="42.52"/><path class="cls-3" d="M85,42.52A42.52,42.52,0,0,0,42.52,0V85A42.52,42.52,0,0,0,85,42.52Z"/><g class="cls-4"><rect class="cls-5" x="36.45" y="53.24" width="12.45" height="13.65"/><path class="cls-6" d="M48.83,60.51h2.12c4,1,8.28,1.74,11.17,5.08C63.91,67.66,67,85,67,85H42.6V65.37C46,65.37,48.83,63.19,48.83,60.51Z"/><path class="cls-6" d="M36.37,60.51H34.25c-4,1-8.29,1.74-11.17,5.08C21.29,67.66,18.17,85,18.17,85H42.6V65.37C39.16,65.37,36.37,63.19,36.37,60.51Z"/><path class="cls-7" d="M42.68,14.17c6,0,15.61,3.44,15.61,19.54,0,9.3-3,15.39-4.35,17.08s-8,4.85-11.25,4.85Z"/><path class="cls-7" d="M61.29,37.56c.27-2.57-1-4.86-2.74-5.1s-3.44,1.64-3.7,4.22,1,4.86,2.74,5.1S61,40.13,61.29,37.56Z"/><path class="cls-8" d="M42.68,14.17c-6,0-15.61,3.44-15.61,19.54,0,9.3,3,15.39,4.35,17.08s8,4.85,11.25,4.85Z"/><path class="cls-8" d="M24.06,37.56c-.27-2.57,1-4.86,2.74-5.1s3.44,1.64,3.7,4.22-1,4.86-2.74,5.1S24.33,40.13,24.06,37.56Z"/><path class="cls-9" d="M42.68,49.57c2.82,0,5.1-.93,5.1-2.08H37.58C37.58,48.64,39.86,49.57,42.68,49.57Z"/><path class="cls-10" d="M55.25,35c.65-1.66,1.94-2.72,3.3-2.54h0a10.14,10.14,0,0,0,0-6.59c-4.5-12.82.61-15.11.61-15.11a14.29,14.29,0,0,0-8.84,3,29.13,29.13,0,0,1,3.86-5.19S48.6,7.34,42.6,13.47a17,17,0,0,1,2.93-5s-12.52.09-17,9.15a25.58,25.58,0,0,0-2.16,15,2.32,2.32,0,0,1,.47-.12,2.45,2.45,0,0,1,1.68.41v-4c2.4-1.07,4.93-2.4,4.79-7.73H50.86s-.4,6,4.4,7.46Z"/><path class="cls-11" d="M42.6,66.95c4.61,0,8.35-2.88,8.35-6.44H48.81c0,2.68-2.78,4.85-6.21,4.86s-6.21-2.18-6.21-4.86H34.25C34.25,64.06,38,66.95,42.6,66.95Z"/></g></g></svg>